<svg width="130" height="31" viewBox="0 0 130 31" fill="none" xmlns="http://www.w3.org/2000/svg">
<path d="M54.2565 0.383789H48.5947C48.3953 0.383789 48.2337 0.545393 48.2337 0.744743V29.6674C48.2337 29.8668 48.3953 30.0284 48.5947 30.0284H54.2565C54.4558 30.0284 54.6174 29.8668 54.6174 29.6674V0.744743C54.6174 0.545393 54.4558 0.383789 54.2565 0.383789Z" fill="#32375D"/>
<path d="M24.3747 0.383789H16.6193C16.4543 0.383789 16.2996 0.461136 16.2017 0.595205L7.02828 13.1873V0.744743C7.02828 0.54364 6.86843 0.383789 6.66733 0.383789H0.360954C0.159851 0.383789 0 0.54364 0 0.744743V29.6674C0 29.8685 0.159851 30.0284 0.360954 30.0284H6.66733C6.86843 30.0284 7.02828 29.8685 7.02828 29.6674V17.2249L16.2017 29.817C16.2996 29.951 16.4543 30.0284 16.6193 30.0284H24.8749C25.045 30.0284 25.143 29.8324 25.0399 29.6984L13.9844 15.2087L24.5397 0.713804C24.6377 0.579735 24.5397 0.383789 24.3747 0.383789Z" fill="#32375D"/>
<path d="M39.5244 11.0784C38.8799 9.17565 36.3532 7.83496 33.0994 7.83496C30.0571 7.83496 27.4892 8.91782 25.4318 11.1248C23.4207 13.2905 22.3894 15.9719 22.3894 19.1328C22.3894 22.2937 23.4156 24.9751 25.4318 27.1821C27.4892 29.3478 30.0571 30.4255 33.0994 30.4255C36.3532 30.4255 38.885 29.0848 39.5244 27.1821V29.6778C39.5244 29.8789 39.6843 30.0388 39.8854 30.0388H45.5472C45.7483 30.0388 45.9081 29.8789 45.9081 29.6778V8.58265C45.9081 8.38155 45.7483 8.2217 45.5472 8.2217H39.8854C39.6843 8.2217 39.5244 8.38155 39.5244 8.58265V11.0784ZM34.3422 24.578C31.3308 24.578 28.8918 22.139 28.8918 19.1277C28.8918 16.1163 31.3308 13.6773 34.3422 13.6773C37.3535 13.6773 39.7926 16.1163 39.7926 19.1277C39.7926 22.139 37.3535 24.578 34.3422 24.578Z" fill="#32375D"/>
<path d="M73.5778 11.0783C72.9332 9.17559 70.4066 7.8349 67.1528 7.8349C64.1105 7.8349 61.5426 8.91776 59.4851 11.1247C57.4741 13.2905 56.4428 15.9718 56.4428 19.1327C56.4428 22.2937 57.469 24.975 59.4851 27.182C61.5426 29.3477 64.1105 30.4254 67.1528 30.4254C70.4066 30.4254 72.9384 29.0848 73.5778 27.182V29.6777C73.5778 29.8789 73.7376 30.0387 73.9387 30.0387H79.6006C79.8017 30.0387 79.9615 29.8789 79.9615 29.6777V0.383789H73.9387C73.7376 0.383789 73.5778 0.54364 73.5778 0.744743V11.0783ZM68.3955 24.578C65.3841 24.578 62.9451 22.139 62.9451 19.1276C62.9451 16.1162 65.3841 13.6772 68.3955 13.6772C71.4069 13.6772 73.8459 16.1162 73.8459 19.1276C73.8459 22.139 71.4069 24.578 68.3955 24.578Z" fill="#32375D"/>
<path d="M123.616 8.58265V11.0784C122.972 9.17565 120.445 7.83496 117.191 7.83496C114.149 7.83496 111.581 8.91782 109.524 11.1248C107.513 13.2905 106.481 15.9719 106.481 19.1328C106.481 22.2937 107.507 24.9751 109.524 27.1821C111.581 29.3478 114.149 30.4255 117.191 30.4255C120.445 30.4255 122.977 29.0848 123.616 27.1821V29.6778C123.616 29.8789 123.776 30.0388 123.977 30.0388H129.639C129.84 30.0388 130 29.8789 130 29.6778V8.58265C130 8.38155 129.84 8.2217 129.639 8.2217H123.977C123.776 8.2217 123.616 8.38155 123.616 8.58265ZM118.434 24.578C115.423 24.578 112.984 22.139 112.984 19.1277C112.984 16.1163 115.423 13.6773 118.434 13.6773C121.445 13.6773 123.884 16.1163 123.884 19.1277C123.884 22.139 121.445 24.578 118.434 24.578Z" fill="#32375D"/>
<path d="M93.7706 6.89648C90.2384 6.89648 87.3095 7.99997 85.0716 10.1708C82.8028 12.3263 81.6529 15.2087 81.6529 18.7358V18.9162C81.6529 22.4897 82.7563 25.2742 85.0304 27.4347C87.3301 29.5747 90.2332 30.6163 93.9047 30.6163C97.5761 30.6163 100.876 29.3323 103.434 26.5942C103.46 26.5685 103.929 26.0425 104.202 25.6042C104.3 25.4443 104.249 25.2381 104.099 25.1298L100.335 22.4175C100.19 22.3144 99.9945 22.3298 99.8707 22.4536C99.7934 22.5309 99.6954 22.6237 99.5716 22.732C98.0659 24.1501 96.2663 24.872 94.2192 24.872C90.7695 24.872 88.5368 23.258 88.3718 20.6488H104.842C105.032 20.6488 105.192 20.4993 105.203 20.3085C105.228 19.8186 105.275 18.9214 105.275 18.38C105.275 15.1056 104.228 12.4397 102.078 10.2173C99.9429 8.01544 97.1481 6.89648 93.7757 6.89648H93.7706ZM88.4543 16.0595C88.6554 14.0949 91.017 12.5119 93.7706 12.5119C96.3591 12.5119 98.4733 14.1001 98.5145 16.0595H88.4543Z" fill="#32375D"/>
</svg>
